<?xml version="1.0" encoding="utf-8"?>
<!-- Generator: Adobe Illustrator 26.0.3, SVG Export Plug-In . SVG Version: 6.00 Build 0)  -->
<svg version="1.2" baseProfile="tiny" id="Calque_1"
	 xmlns="http://www.w3.org/2000/svg" xmlns:xlink="http://www.w3.org/1999/xlink" x="0px" y="0px" viewBox="0 0 1050 230"
	 overflow="visible" xml:space="preserve">
<g>
	<path fill="#FFFFFF" d="M0,190C0,140,0,90,0,40.1c0.4-1.2,0.9-2.4,1.2-3.6C6,17.9,17.7,6.2,36.2,1.2c1.4-0.4,2.7-0.8,4.1-1.3
		c323.2,0,646.3,0,969.5,0c0.9,0.3,1.7,0.8,2.6,1c22.2,4.8,37.5,23.1,37.5,45.8c0.1,45.6,0,91.1,0,136.7c0,8-1.8,15.6-5.8,22.5
		c-9.8,16.8-24.7,24.2-44.1,24.2c-316.9-0.1-633.7,0-950.6,0c-1,0-2,0-2.9,0c-22-0.3-40.5-15.2-45.3-36.5C0.9,192.4,0.4,191.2,0,190
		z M525.5,4.7c-158.9,0-317.9,0-476.8,0c-26,0-43.9,17.8-43.9,43.7c0,44.4,0,88.8,0,133.3c0,25.9,17.9,43.7,43.8,43.7
		c317.6,0,635.1,0,952.7,0c26,0,43.9-17.8,43.9-43.7c0-44.4,0-88.8,0-133.3c0-2.8,0-5.6-0.5-8.3c-3.8-21.5-20.6-35.4-42.9-35.4
		C843.1,4.7,684.3,4.7,525.5,4.7z"/>
	<path fill="#FFFFFF" d="M646.3,200.5c-8.9,0-17.2,0-25.9,0c-3.8-12.2-7.7-24.4-11.6-36.7c-3.4-10.9-6.9-21.8-10.1-32.7
		c-0.9-3.1-2.3-4.7-5.8-4.3c-3.4,0.3-6.8,0.1-10.7,0.1c0,24.8,0,49.1,0,73.6c-8.3,0-16.1,0-24.3,0c0-57.3,0-114.5,0-171.8
		c0.2-0.1,0.4-0.5,0.6-0.5c16.4,0.1,32.8-0.7,49.1,0.8c16.5,1.5,26.8,12.1,31,28c3.5,13.3,3.6,26.8,0.4,40.2
		c-2.3,9.4-7.2,17.2-15.6,22.3c-3,1.8-3.4,3.5-2.3,6.7c7.9,22.8,15.6,45.7,23.3,68.5C645.1,196.4,645.6,198.3,646.3,200.5z
		 M582.4,50.5c0,18.7,0,36.3,0,54.3c6.2,0,12.1,0.2,17.9-0.1c8.4-0.4,14.2-5.1,15-13.4c0.8-8.7,0.8-17.6,0.1-26.3
		c-0.7-8-5.3-12.3-13.3-13.4C595.8,50.9,589.4,50.9,582.4,50.5z"/>
	<path fill="#FFFFFF" d="M455,163.7c-11.4,0-22.5,0-34,0c-2.4,12.2-4.8,24.3-7.3,36.7c-8,0-15.9,0-24.5,0c1.8-8.4,3.6-16.6,5.4-24.8
		c10.7-47.7,21.5-95.4,32-143.1c0.8-3.5,1.9-5.1,5.7-4.8c3.9,0.3,7.9,0.3,11.8,0c3.3-0.2,4.5,1,5.2,4.2
		c7.2,32.6,14.5,65.2,21.8,97.8c5,22.3,10,44.5,15,66.8c0.3,1.2,0.4,2.5,0.7,4c-8.2,0-16,0-24.3,0
		C459.9,188.3,457.5,176.1,455,163.7z M450.4,140c-4.1-21-8-41.2-12-61.5c-0.4,0-0.7,0-1.1,0c-3.9,20.3-7.9,40.7-11.9,61.4
		C434,140,441.9,140,450.4,140z"/>
	<path fill="#FFFFFF" d="M320.2,152c1.7,15.2-1,28.5-12.2,39.1c-13,12.3-28.4,13.6-44.3,7.8c-14.9-5.4-22.5-17.3-22.9-32.8
		c-0.6-22-0.4-44.1-0.4-66.1c0-12.7-0.4-25.5,0.5-38.2c1.5-21.5,18.4-35.7,41.1-35.4c20.7,0.3,37.1,15.8,38.4,36.4
		c0.3,4.5,0,9.1,0,14c-8.1,0-16,0-24.5,0c0-3.2,0.2-6.3,0-9.3c-0.7-12-9.7-19.1-20.6-15.7c-3,1-6.3,3.8-7.7,6.6
		c-1.8,3.6-2.4,8.2-2.4,12.3c-0.2,29.6-0.1,59.1-0.1,88.7c0,1.6,0.1,3.3,0.3,4.9c1.1,8.1,5.5,12.6,12.8,13.1
		c9.1,0.6,15.1-3.2,16.9-11.4c1-4.4,0.9-9,1.3-13.9C304.2,152,312.1,152,320.2,152z"/>
	<path fill="#FFFFFF" d="M720.9,200.4c0-57.5,0-114.7,0-172.2c8,0,15.9,0,24.4,0c0,49.2,0,98.2,0,147.8c16.5,0,32.5,0,48.8,0
		c0,8.4,0,16.3,0,24.4C769.8,200.4,745.6,200.4,720.9,200.4z"/>
	<path fill="#FFFFFF" d="M973.3,144.8c-8.6,0-15.6-7-15.6-15.5c0-8.7,7.2-15.8,16-15.7c8.5,0.2,15.4,7.2,15.3,15.8
		C989,138,981.9,144.9,973.3,144.8z"/>
	<path fill="#FFFFFF" d="M77.6,130c0.1,8.5-6.8,15.6-15.3,15.8c-8.8,0.2-16-6.9-16-15.6c0-8.5,7-15.5,15.6-15.6
		C70.4,114.6,77.5,121.5,77.6,130z"/>
</g>
</svg>
