<svg id="Calque_1" data-name="Calque 1" xmlns="http://www.w3.org/2000/svg" viewBox="0 0 1050 230"><path d="M1008,229.5H42a28.5,28.5,0,0,0-3.1-1.2Q11.5,221,4,193.5c-.3-1-.7-2-1.1-3V39.4c.2-.2.5-.4.6-.7C11.5,11.6,26.3.5,54.7.5h947.1c24.6.4,45.1,20.7,45.2,45.3q.3,69.2,0,138.3c-.1,14.5-6,26.8-17.8,35.2C1023,223.8,1015.1,226.1,1008,229.5Zm-483.5-4.8H998.2c26.3,0,44.1-17.8,44.1-44.1V49.1c0-26-17.8-43.8-43.9-43.8H51.6C25.5,5.3,7.7,23.1,7.7,49.1v130c0,28.4,17.2,45.6,45.6,45.6Z"/><path d="M557.6,29c17,0,33.9-1.1,50.5.3,14.8,1.3,24.7,11,29.1,25.3a79.2,79.2,0,0,1,.9,43.7c-2.2,8.8-7.1,16.1-15,20.9-3.4,2.1-3.4,4.1-2.2,7.5,7.8,22.5,15.4,45,23.1,67.6.6,1.8,1,3.6,1.7,5.9-8.1,0-15.7.2-23.3-.2-1.4,0-3.3-2.2-3.8-3.7-6.8-21-13.6-42-19.8-63.1-1.5-5-3.4-7.2-8.6-6.4-2.5.4-5.2.1-8.3.1V200H557.6Zm24.5,75.7c6.6,0,12.8.5,18.9-.1s11.8-4.5,13.3-11.6a65.6,65.6,0,0,0-.1-29.9c-1-4.4-3.4-7.8-7.6-9.5-8-3.2-16.2-2.2-24.5-2.2Z"/><path d="M414.3,200H389.7c2.5-11.6,5-22.8,7.5-34,10-44.6,20.1-89.2,29.9-133.8.8-3.5,2.2-4.5,5.5-4.3,5.2.4,11.9-1.6,15.2,1s3.3,9.3,4.4,14.3L486.4,196a39.6,39.6,0,0,1,.5,4H462.5c-2.4-12.1-4.8-24.2-7.2-36.5H421.6C419.2,175.7,416.8,187.8,414.3,200ZM438.8,79.1h-.9c-3.9,20.2-7.9,40.3-11.8,60.7h24.5C446.6,119.3,442.7,99.2,438.8,79.1Z"/><path d="M321.7,77.2H297.6c-.4-4.5-.4-8.9-1.3-13.1-2-9.7-9.2-14.1-18.8-12.2-4.2.8-7.4,3-8.6,7a40.9,40.9,0,0,0-2.1,11.4c-.2,29.9-.1,59.7-.1,89.6.1,8.8,3.2,14.3,9.1,16.2,9.9,3.3,19.1-1.9,20.9-12.1.6-3.9.5-8,.8-12.4h23.6c5.8,30.1-18.4,55.7-48.9,49.1-18.8-4.1-30-17.1-30.3-37.5q-.7-49,0-97.9c.3-22.9,17.1-38.5,39.9-38.5s38.9,15.4,39.9,38.5C321.9,69.1,321.7,73,321.7,77.2Z"/><path d="M792.9,175.6v24.3H719.8V28.3h24.1c.1,2,.3,4.1.3,6.1,0,45.1.1,90.3-.1,135.4,0,4.7,1.2,6.1,5.9,5.9,12.4-.3,24.8-.1,37.2-.1Z"/><path d="M986.5,129.3a15.6,15.6,0,1,1-15.6-15.8A15.5,15.5,0,0,1,986.5,129.3Z"/><path d="M64.7,145.6a15.6,15.6,0,1,1-.2-31.1,15.6,15.6,0,0,1,.2,31.1Z"/></svg>