<svg width="465" height="66" viewBox="0 0 465 66" fill="none" xmlns="http://www.w3.org/2000/svg">
<path d="M122.5 63.5002L122.205 64.9633L122.568 65.0425L122.923 64.9451L122.5 63.5002ZM258.335 26.2562L259.135 25.0033L258.561 24.633L257.912 24.8112L258.335 26.2562ZM316 63.5002L315.2 64.753L315.849 65.1721L316.56 64.9003L316 63.5002ZM463.881 8.11339C464.207 7.35859 463.852 6.47208 463.089 6.13332L450.654 0.612874C449.891 0.274112 449.009 0.61138 448.683 1.36618C448.358 2.12098 448.713 3.00749 449.476 3.34626L460.529 8.25332L455.816 19.1868C455.491 19.9416 455.846 20.8282 456.609 21.1669C457.372 21.5057 458.254 21.1684 458.58 20.4136L463.881 8.11339ZM0.705254 38.4633L122.205 64.9633L122.794 62.037L1.29401 35.5369L0.705254 38.4633ZM122.923 64.9451L258.758 27.7011L257.912 24.8112L122.076 62.0552L122.923 64.9451ZM257.535 27.509L315.2 64.753L316.799 62.2473L259.135 25.0033L257.535 27.509ZM316.56 64.9003L463.06 8.90013L461.939 6.09989L315.439 62.1L316.56 64.9003Z" fill="#32292F"/>
</svg>
